<svg width="16" height="16" viewBox="0 0 16 16" fill="none" xmlns="http://www.w3.org/2000/svg">
<path d="M15.25 4H15V2.5C15 1.1 11.9 0 8 0C4.1 0 1 1.1 1 2.5V4H0.75C0.335938 4 0 4.33563 0 4.75V7.25C0 7.66406 0.335938 8 0.75 8H1V13C1 13.5522 1.44781 14 2 14V15C2 15.5522 2.44781 16 3 16H4C4.55219 16 5 15.5522 5 15V14H11V15C11 15.5522 11.4478 16 12 16H13C13.5522 16 14 15.5522 14 15V14H14.2C14.7 14 15 13.6 15 13.2V8H15.25C15.6641 8 16 7.66406 16 7.25V4.75C16 4.33563 15.6641 4 15.25 4ZM3.5 12.5C2.94781 12.5 2.5 12.0522 2.5 11.5C2.5 10.9478 2.94781 10.5 3.5 10.5C4.05219 10.5 4.5 10.9478 4.5 11.5C4.5 12.0522 4.05219 12.5 3.5 12.5ZM4 9C3.44781 9 3 8.55219 3 8V4C3 3.44781 3.44781 3 4 3H12C12.5522 3 13 3.44781 13 4V8C13 8.55219 12.5522 9 12 9H4ZM12.5 12.5C11.9478 12.5 11.5 12.0522 11.5 11.5C11.5 10.9478 11.9478 10.5 12.5 10.5C13.0522 10.5 13.5 10.9478 13.5 11.5C13.5 12.0522 13.0522 12.5 12.5 12.5Z" fill="white"/>
</svg>
