<svg width="11" height="10" viewBox="0 0 11 10" fill="none" xmlns="http://www.w3.org/2000/svg">
<g clip-path="url(#clip0_433_250)">
<path d="M5.07388 0.833313C2.77388 0.833313 0.911377 2.69998 0.911377 4.99998C0.911377 7.29998 2.77388 9.16665 5.07388 9.16665C7.37804 9.16665 9.24471 7.29998 9.24471 4.99998C9.24471 2.69998 7.37804 0.833313 5.07388 0.833313ZM5.07804 8.33331C3.23638 8.33331 1.74471 6.84165 1.74471 4.99998C1.74471 3.15831 3.23638 1.66665 5.07804 1.66665C6.91971 1.66665 8.41138 3.15831 8.41138 4.99998C8.41138 6.84165 6.91971 8.33331 5.07804 8.33331Z" fill="#495057"/>
<path d="M5.28638 2.91669H4.66138V5.41669L6.84888 6.72919L7.16138 6.21669L5.28638 5.10419V2.91669Z" fill="#495057"/>
</g>
<defs>
<clipPath id="clip0_433_250">
<rect width="10" height="10" fill="white" transform="translate(0.078125)"/>
</clipPath>
</defs>
</svg>
