<svg width="12" height="12" viewBox="0 0 12 12" fill="none" xmlns="http://www.w3.org/2000/svg">
<path d="M9.69003 7.78004C9.08804 7.78004 8.60003 7.29203 8.60003 6.69004C8.60003 6.08805 9.08804 5.60004 9.69003 5.60004C10.292 5.60004 10.78 6.08805 10.78 6.69004C10.78 7.29203 10.292 7.78004 9.69003 7.78004Z" fill="#495057"/>
<path d="M10.78 0V1.415C7.26503 1.415 4.41503 4.265 4.41503 7.78H3.00003C3.00003 3.485 6.48503 0 10.78 0ZM10.78 2.83V4.245C8.83003 4.245 7.24503 5.83 7.24503 7.78H5.83003C5.83003 5.045 8.04503 2.83 10.78 2.83Z" fill="#495057"/>
</svg>
