<svg width="64" height="64" viewBox="0 0 64 64" fill="none" xmlns="http://www.w3.org/2000/svg">
<path d="M56.0001 17.4622C54.7289 19.3671 53.1201 21.0409 51.2667 22.3849C51.2845 22.7929 51.2934 23.2036 51.2934 23.6151C51.2934 36.1787 41.7574 50.6667 24.3138 50.6667C18.9583 50.6667 11.9787 48.7858 9.77783 46.3956C10.5209 46.4844 11.2765 46.5289 12.0409 46.5289C16.4845 46.5289 20.5743 45.008 23.8178 42.4578C19.6685 42.3813 16.1663 39.6311 14.9592 35.8533C16.8472 36.1502 19.2418 35.6898 19.2418 35.6898C19.2418 35.6898 11.8267 34.4133 11.6347 26.248C13.7787 27.4942 15.9298 27.4373 15.9298 27.4373C15.9298 27.4373 11.6534 24.7973 11.7129 19.5253C11.7476 16.4151 12.9947 14.7431 12.9947 14.7431C21.0969 24.7476 32.5405 24.6791 32.5405 24.6791C32.5405 24.6791 32.2952 23.2587 32.2952 22.5138C32.2952 17.264 36.5396 13.0053 41.7769 13.0053C44.5041 13.0053 46.9681 14.1609 48.6978 16.0089C50.8596 15.5804 52.8898 14.7893 54.7209 13.7004C53.8934 17.0222 50.5521 18.9609 50.5521 18.9609C50.5521 18.9609 53.4134 18.6409 56.0001 17.4622Z" fill="white"/>
</svg>
